<?xml version="1.0" encoding="utf-8"?>
<!-- Generator: Adobe Illustrator 25.2.1, SVG Export Plug-In . SVG Version: 6.00 Build 0)  -->
<svg version="1.1" id="レイヤー_1" xmlns="http://www.w3.org/2000/svg" xmlns:xlink="http://www.w3.org/1999/xlink" x="0px"
	 y="0px" viewBox="0 0 200 60" style="enable-background:new 0 0 200 60;" xml:space="preserve">
<style type="text/css">
	.st0{enable-background:new    ;}
	.st1{fill:url(#SVGID_1_);}
	.st2{fill:url(#SVGID_2_);}
	.st3{fill:url(#SVGID_3_);}
	.st4{stroke:#000000;stroke-width:0.25;stroke-miterlimit:10;}
	.st5{fill:#DC0005;stroke:#000000;stroke-width:0.0907;stroke-miterlimit:10;}
	.st6{fill:#DC0005;stroke:#000000;stroke-width:0.1;stroke-miterlimit:10;}
	.st7{fill:#DC0005;stroke:#000000;stroke-width:0.1226;stroke-miterlimit:10;}
	.st8{fill:#BF8C00;}
	.st9{stroke:#000000;stroke-width:0.1176;stroke-miterlimit:10;}
	.st10{fill:#EEEEEE;}
</style>
<g class="st0">
	<path d="M76.06,35.28c0-0.27,0-0.3-0.12-0.54c-0.09,0.15-0.18,0.24-0.21,0.27c-0.12,0.18-0.27,0.33-0.39,0.48
		c-1.89,3-2.07,3.15-4.38,3.87c-0.57,0.21-0.57,0.21-0.75,0.21c-0.24,0-0.48-0.06-0.96-0.27c0.18-0.09,0.3-0.15,0.33-0.18
		c0.15-0.09,0.27-0.21,0.42-0.33c1.62-1.14,2.76-2.1,3.36-2.85l0.6-0.66l0.69-0.9c0.15-0.21,0.33-0.45,0.51-0.66
		c0.3-0.39,0.57-0.84,0.81-1.32l0.9-1.68l0.39-0.75c0.12-0.24,0.15-0.39,0.24-0.72c-0.42,0.09-0.48,0.15-1.17,0.81
		c-0.57,0.6-4.05,3.15-4.29,3.15c-0.24,0-0.24,0-1.02-0.75c-0.09-0.09-0.18-0.15-0.27-0.18c-0.33-0.15-0.63-0.3-0.93-0.45
		c-0.24-0.09-0.45-0.57-0.45-0.93c0-0.42,0.27-0.84,0.87-1.38c0.33,0.45,1.17,0.93,1.53,0.93c0.12,0,0.15,0,1.53-0.42l0.72-0.42
		l1.68-0.9c0.24-0.12,0.45-0.24,0.63-0.39l0.81-0.54c0.48-0.24,0.72-0.36,0.75-0.39c0.06-0.06,0.12-0.09,0.15-0.15
		c0.09-0.18,0.18-0.33,0.24-0.48c0.09-0.12,0.21-0.21,0.36-0.21c0.36,0,1.26,0.18,1.53,0.3c0.15,0.09,0.27,0.27,0.27,0.48
		c0,0.27-0.18,0.69-0.39,0.93c-0.51,0.57-0.51,0.57-0.87,1.2l-2.49,4.29l0.27,0.24c0.12,0.09,0.18,0.15,0.18,0.18
		c0.09,0.21,0.18,0.42,0.24,0.66c0.24,0.54,0.24,0.54,0.24,0.69c0,0.15-0.03,0.42-0.09,0.72c-0.03,0.3-0.06,0.6-0.06,0.9l-0.09,6.39
		l-0.09,0.36l0.03,0.36v0.03c0,0.18-0.27,0.51-0.45,0.51c-0.75,0-1.59-1.35-1.59-2.52c0-0.18,0.06-0.33,0.15-0.48
		c0.3-0.36,0.3-0.36,0.42-0.6c0-0.18,0-0.3,0.03-0.33l0.06-0.63L76,39.21l0.03-0.45v-1.2l0.03-0.45v-1.35V35.28z M75.31,22.08
		c0.15-0.03,0.3-0.03,0.33-0.06c0.51-0.06,0.84-0.12,0.93-0.12c0.39,0,1.86,0.42,2.25,0.66c0.72,0.42,1.11,0.96,1.11,1.53
		c0,0.36-0.18,0.57-0.48,0.57c-0.06,0-0.06,0-0.6-0.06h-0.03c-0.15,0-1.23,0.36-1.5,0.51c-1.38,0.75-1.38,0.75-1.65,0.87l-0.03-0.06
		h-0.09v-0.06c0.72-0.51,1.05-1.08,1.05-1.71c0-0.24,0-0.24-0.69-1.08c-0.12-0.24-0.24-0.51-0.39-0.78c0-0.03-0.09-0.09-0.21-0.18
		V22.08z M78.37,33.66c0.33-0.03,0.54-0.06,0.72-0.06c0.69,0,1.02,0.18,1.59,0.81c0.36,0.27,0.36,0.27,0.39,0.33
		c0.12,0.21,0.24,0.6,0.24,0.81c0,0.18-0.24,0.45-0.66,0.78c-0.12,0.12-0.75,0.27-0.87,0.24C79,36.36,79,36.36,78.73,36.33
		L78.7,36.3c0.45-0.42,0.6-0.66,0.6-0.93c0-0.39-0.27-0.93-0.6-1.29c-0.18-0.18-0.36-0.27-0.75-0.39L78.37,33.66z M84.25,36.06
		c-0.54-0.06-0.81-0.24-1.17-0.81c-0.69-0.99-1.5-2.55-1.62-3.06c-0.45-1.83-0.51-2.1-0.48-2.37l0.15-1.29l0.06-0.66
		c0-0.09,0.06-0.3,0.12-0.57l0.12-0.39c0.45,0.39,0.6,0.57,0.96,1.17l0.27-0.03l0.42-0.42c0.09-0.03,0.39-0.15,0.99-0.33l2.16-1.02
		c0.09-0.06,0.12-0.06,0.72-0.3c0.03-0.24,0.03-0.36,0.03-0.42l-0.03-1.5c-0.03-0.93-0.03-1.47-0.06-1.62
		c-0.06-0.21-0.18-0.57-0.39-1.11c-0.39-0.09-0.45-0.15-0.66-0.3c-0.09-0.09-0.18-0.18-0.39-0.36c0.12-0.12,0.21-0.24,0.24-0.3
		c0.27-0.39,0.42-0.51,0.69-0.51c0.69,0,1.59,0.24,2.61,0.66c0.51,0.24,0.66,0.39,0.84,0.93c-0.15,0.21-0.24,0.33-0.3,0.39
		c-0.03,0.03-0.15,0.15-0.36,0.33l-0.21,0.93c-0.18,0.6-0.27,0.96-0.3,1.08c-0.03,0.33-0.06,0.69-0.12,1.26l0.33-0.12
		c0.48-0.18,0.96-0.3,1.08-0.27H91c0.45-0.21,0.45-0.21,0.51-0.21c0.27,0,1.11,0.36,1.62,0.72c0.21,0.15,0.36,0.39,0.54,0.87
		c-0.18,0.06-0.3,0.09-0.36,0.12l-0.72,0.15c-0.57,0.15-0.6,0.18-1.65,0.84l-0.9,0.48c-0.33,0.21-0.63,0.42-0.96,0.6
		c-0.3,0.18-0.42,0.24-0.75,0.36c-0.03,0.06-0.03,0.09-0.03,0.12c0,0.06,0.06,0.12,0.12,0.21c0.51-0.06,0.63-0.06,0.84-0.12
		c0.09-0.03,0.3-0.12,0.57-0.24c0.06-0.03,0.15-0.03,0.27-0.03c0.51,0,0.99,0.27,0.99,0.54c0,0.27-0.15,0.36-1.65,0.96
		c-0.87,0.63-0.87,0.63-0.93,0.72c-0.09,0.15-0.15,0.72-0.15,1.56c0,0.12,0,0.3,0.03,0.63l2.46-0.81c-0.03-0.45-0.09-0.66-0.15-0.78
		c-0.06-0.06-0.3-0.27-0.66-0.57l-0.21-0.18c1.38,0,3.06,0.72,3.06,1.29c0,0.15-0.12,0.33-0.33,0.51c-0.33,0.3-0.33,0.3-4.14,1.62
		l-0.03,0.15v0.12c0.03,0.3,0.03,0.42,0.03,0.75c0,0.51-0.06,1.56-0.12,2.52c-0.06,0.54-0.06,0.87-0.06,1.05l0.09,5.46l-0.09,0.18
		l-0.21,0.9l-0.09,0.12c-0.18,0.39-0.21,0.42-0.42,0.42c-0.54,0-1.56-1.71-1.56-2.61c0-0.18,0-0.21,0.51-0.99
		c0.3-0.36,0.3-0.36,0.3-0.42c0.09-0.15,0.15-1.02,0.15-1.68l-0.03-4.17v-0.93c0-0.03,0-0.18-0.03-0.3l-1.5,0.42
		c-0.18-0.03-0.3-0.06-0.42-0.06c-0.09,0-0.15,0.03-0.18,0.06c-0.06,0.06-0.12,0.18-0.21,0.33c-0.03,0.06-0.09,0.15-0.18,0.27h-0.06
		L84.25,36.06z M86.98,27.78c0.03-0.06,0.03-0.15,0.03-0.21c0-0.09-0.03-0.15-0.18-0.24c-0.81,0.87-1.77,1.44-2.49,1.44
		c-0.09,0-0.42-0.06-0.96-0.15c-0.24-0.18-0.39-0.24-0.54-0.24c-0.27,0-0.45,0.36-0.45,0.87c0,1.65,0.6,3.63,1.41,4.74
		c0.15-0.06,0.24-0.09,0.24-0.09c0.45-0.48,0.9-0.96,1.38-1.41c0.39-0.39,0.78-0.75,1.17-1.11c0-0.03,0.06-0.12,0.15-0.3l-0.03-0.09
		c-0.3,0.03-0.48,0.06-0.54,0.09c-0.21,0.09-0.39,0.18-0.57,0.27L85,31.62c-0.57,0.36-0.57,0.36-0.75,0.36
		c-0.36,0-0.57-0.27-0.57-0.72c0-0.15,0.03-0.27,0.15-0.48c0.36-0.09,0.66-0.27,2.22-1.2c0.21-0.15,0.33-0.27,0.36-0.27
		c0.54-0.33,0.63-0.45,0.63-0.81c0-0.09,0-0.21-0.03-0.33s-0.03-0.21-0.03-0.27V27.78z M84.88,34.29c0.09,0.09,0.15,0.12,0.21,0.12
		c0.03,0,0.21-0.03,0.33-0.09l0.42-0.12c0.39-0.12,0.66-0.21,0.78-0.24c0.03-0.03,0.12-0.06,0.24-0.12l0.12-1.14l-0.09-0.09
		l0.03-0.39h-0.03c-0.12,0-0.21,0.06-0.42,0.33c-0.48,0.54-1.17,1.23-1.59,1.65V34.29z M88.33,27.99c0.03,0.03,0.06,0.03,0.09,0.03
		c0.06,0,0.15-0.06,0.24-0.15c0.09-0.06,0.21-0.12,0.39-0.21c0.3-0.18,0.51-0.3,0.6-0.36l0.39-0.33c0.06-0.03,0.15-0.09,0.3-0.18
		l0.06-0.18l0.15-0.09c0-0.27-0.12-0.36-0.36-0.36c-0.66,0-1.29,0.12-1.74,0.36l-0.12,0.45c0.03,0.15,0.06,0.27,0.06,0.33
		c0,0.18-0.03,0.36-0.09,0.6L88.33,27.99z"/>
	<path d="M105.55,41.04l5.73,0.3l5.76,0.63l0.27,0.09l0.93,0.18l0.78,0.21l0.69,0.09l0.48,0.12l2.37,0.21l1.08,0.21
		c1.68,0.24,2.07,0.42,2.07,0.99c0,0.42-0.18,0.51-1.68,0.96c-0.06,0-0.3,0.12-0.69,0.27c-0.33,0.15-0.57,0.21-0.78,0.21
		c-0.09,0-0.09,0-1.35-0.27c-1.05-0.39-2.1-0.81-3.15-1.23c-0.33-0.12-0.78-0.24-1.29-0.33l-5.13-0.99c-0.24-0.06-3.78-0.3-4.23-0.3
		c-0.3,0-0.3,0-1.5,0.18l-0.42,0.06l-0.96,0.51c-0.42,0.18-0.84,0.39-1.29,0.6l-0.63,0.33c-0.27,0.18-0.51,0.27-0.63,0.27
		c-0.15,0-0.33-0.12-0.69-0.42c-0.9-0.81-1.14-1.11-1.14-1.47c0-0.39,0.24-0.72,0.81-1.05l0.15-0.09l0.36,0.36l0.27-0.03l0.57-0.18
		c0.03,0,0.18-0.03,0.36-0.06c0.06-0.03,0.21-0.06,0.36-0.09c0.12-0.24,0.18-0.33,0.24-0.51c0.03-0.06,0.09-0.42,0.24-1.05
		c0.36-1.44,0.36-1.44,0.36-1.47c0-0.09-0.03-0.12-0.57-0.78c-0.33-0.42-0.57-1.14-0.57-1.77c0-0.24,0-0.24,0.42-2.13
		c0.03-0.06,0.06-0.39,0.09-0.81c-0.42-0.36-0.63-0.57-0.66-0.69c-0.09-0.27-0.18-0.51-0.27-0.75c-0.03-0.06-0.12-0.21-0.27-0.36
		l0.42,0.06h0.99c0.57,0.06,1.59,0.66,2.04,1.2v0.09c0.15,0.18,0.21,0.3,0.21,0.42c0,0.09-0.03,0.24-0.06,0.36
		c-0.12,0.09-0.12,0.09-0.18,0.3c-0.03,0.03-0.33,0.54-0.75,1.26c-0.39,0.57-0.72,1.47-0.72,1.8c0,0.54,0.09,0.66,0.75,1.11
		c0.48,0.3,0.87,1.08,0.87,1.68c0,0.27-0.03,0.33-0.39,0.99l-0.27,0.45c-0.03,0.09-0.09,0.21-0.18,0.36L105.55,41.04z M101.65,23.7
		l0.12-0.09l0.03-0.03l0.03-0.03c0.3-0.3,0.51-0.39,0.9-0.39c0.51,0,1.8,0.57,2.28,1.02c0.39,0.36,0.48,0.6,0.48,1.2
		c0,0.24,0,0.24-0.12,0.36c-0.3,0.36-0.3,0.36-0.99,0.6c-0.93,0.36-0.93,0.36-1.17,0.36c-0.15,0-0.27,0-0.75-0.06
		c0.42-0.63,0.51-0.84,0.51-1.2c0-0.36-0.06-0.51-0.45-0.9c-0.06-0.09-0.12-0.15-0.21-0.24c-0.03-0.06-0.15-0.15-0.27-0.21
		c-0.21-0.09-0.21-0.12-0.21-0.27l-0.18-0.03V23.7z M113.14,28.17l-2.19,1.35c-0.42,0.21-0.81,0.42-1.23,0.66
		c-0.27,0.12-0.48,0.21-0.57,0.24l-0.21,0.06c-0.6,0.15-0.6,0.15-0.63,0.15c-0.18,0-0.21-0.03-0.51-0.3l-0.36-0.21l-0.39-0.42
		c-0.81-0.42-0.93-0.51-0.93-0.87s0.12-0.51,0.99-1.23l0.36,0.69c0.36,0.24,0.42,0.27,0.75,0.36l0.06-0.03l5.16-1.92
		c0.03-0.03,0.12-0.03,0.27-0.06c0.63-0.21,1.35-0.39,2.1-0.6l1.35-0.42c0.36-0.09,0.75-0.18,1.2-0.24
		c0.45-0.06,0.75-0.12,0.84-0.15c0.45-0.27,0.69-0.42,1.11-0.69c0.21-0.12,0.36-0.18,0.54-0.18c1.26,0,2.79,0.87,2.79,1.62
		c0,0.33-0.42,0.63-0.84,0.63c-0.24,0-0.51-0.06-0.78-0.18c-0.33-0.18-0.57-0.27-0.6-0.27l-0.39-0.03
		c-0.99-0.15-0.99-0.15-1.08-0.15c-0.66,0-2.1,0.27-3.12,0.6c-0.42,0.12-0.87,0.24-1.32,0.36c-0.15,0.06-0.42,0.21-1.2,0.63
		c0.81,0.33,0.96,0.42,0.96,0.72c0,0.21,0,0.21-1.08,1.11c-0.06,0.06-0.33,0.45-0.75,1.08c-0.3,0.42-0.45,0.63-0.9,1.02
		c0.42,0.45,0.51,0.69,0.51,1.32c0,0.21-0.03,1.5-0.09,3.84c0.09,1.17,0.12,1.95,0.15,2.37c0.18-0.03,0.3-0.06,0.36-0.09
		c0.15-0.06,0.33-0.09,0.51-0.15c0.18-0.06,1.35-0.18,1.74-0.18c0.18,0,0.36,0,0.66,0.03l0.06-8.22V30.3
		c-0.21,0.03-0.36,0.03-0.39,0.03c-0.24,0.06-0.48,0.12-0.69,0.18c-0.09,0.03-0.18,0.03-0.27,0.03s-0.09,0-0.48-0.09
		c-0.27-0.06-0.27-0.06-0.57-0.09c1.32-0.84,1.5-0.93,2.16-0.99c0.42-0.18,0.42-0.18,0.51-0.18c0.45,0,0.99,0.27,1.56,0.81
		c0.57,0.57,0.69,0.69,0.69,0.93c0,0.09,0,0.09-0.45,0.66l-0.12,0.18c-0.06,0.45-0.06,0.6-0.27,3.66l0.03,1.5
		c0,0.48,0,1.05-0.03,1.68c0,0.33-0.03,0.84-0.15,1.47l-0.06,0.48c0,0.03-0.06,0.18-0.12,0.36l-0.21-0.03
		c-0.12,0.09-0.21,0.12-0.27,0.12c-0.24,0-0.78-0.63-1.2-1.41c-1.2,0.18-1.44,0.24-1.92,0.48c-0.06,0.03-0.27,0.12-0.57,0.21
		c-0.06,0.03-0.27,0.09-0.48,0.18l-0.09,0.27l-1.02-0.3l-0.42-0.57l0.12-0.96l0.36-6.9c-0.09-0.15-0.18-0.51-0.18-0.75
		c0-0.21,0.15-0.51,0.57-1.14c0.63-1.11,0.96-1.83,0.96-2.1L113.14,28.17z M110.77,22.11c0.3,0.24,0.39,0.36,0.72,0.81
		c0.09,0.12,0.18,0.27,0.27,0.45c0.06,0.09,0.09,0.15,0.24,0.36c0.42-0.03,0.45-0.03,0.75-0.24c0.27-0.15,0.36-0.21,0.54-0.3
		c0.06,0.09,0.09,0.21,0.09,0.27c0,0.06,0,0.06-0.69,1.41c-0.69,1.62-0.69,1.62-1.02,1.62c-0.51,0-0.81-0.36-1.29-1.53
		c0,0-0.09-0.21-0.24-0.48c-0.09-0.12-0.12-0.27-0.12-0.33c0-0.06,0-0.06,0.21-0.72v-0.21v-0.33l0.51-0.66L110.77,22.11z
		 M113.79,35.01c0-0.12,0.09-0.54,0.24-1.17c0.03-0.12,0.03-0.24,0.03-0.36c0-0.09,0-0.09-0.06-0.51c-0.06-0.27-0.09-0.33-0.33-0.48
		c0.3-0.12,0.36-0.15,0.66-0.15c0.87,0,1.41,0.33,1.41,0.84c0,0.42-0.06,0.48-1.32,1.5c-0.15,0.12-0.24,0.33-0.24,0.51
		c0,0.27,0,0.27,0.93,0.54c0.45,0.12,0.78,0.48,0.78,0.81c0,0.12-0.06,0.18-0.27,0.39c-0.99,0.81-1.35,0.99-2.19,1.11
		c0.09-0.15,0.15-0.27,0.18-0.3c0.48-0.87,0.57-1.11,0.57-1.65c0-0.09,0-0.09-0.39-1.02V35.01z M118.92,23.31
		c-2.19,1.77-3.12,2.25-4.65,2.34c0.12-0.06,0.21-0.15,0.3-0.24c0.96-0.69,2.01-1.95,2.4-2.94c-0.42-0.03-0.51-0.06-1.17-0.51
		l-0.03-0.03c0.15-0.12,0.27-0.21,0.3-0.24c0.21-0.06,0.39-0.15,0.6-0.24c0.69-0.48,0.69-0.48,0.84-0.48c0.39,0,1.17,0.33,1.59,0.66
		c1.02,0.81,1.02,0.81,1.02,0.93c0,0.06-0.21,0.24-0.66,0.54L118.92,23.31z"/>
	<path d="M139.83,38.88c-0.72,1.65-1.5,2.7-2.67,3.66c-1.14,0.78-2.1,1.23-2.7,1.26c-0.6,0.18-0.6,0.18-0.81,0.18
		c-0.84,0-1.53-0.39-2.19-1.23c0.15-0.03,0.3-0.06,0.33-0.06l0.9-0.09l0.48-0.12c1.17-0.36,1.32-0.42,2.28-1.05
		c0.87-0.63,0.96-0.72,1.32-0.99c0.39-0.36,0.42-0.36,0.63-0.66l0.36-0.51c1.11-1.47,2.1-3.57,2.52-5.37l0.3-1.08
		c0.06-0.24,0.15-0.72,0.24-1.65l-0.15-0.09c-0.18,0.12-0.27,0.18-0.3,0.21l-0.81,0.45c-0.3,0.18-0.66,0.42-1.05,0.72
		c-1.32,1.02-1.59,1.17-1.95,1.17c-0.72,0-2.67-1.83-2.67-2.49c0-0.15,0.09-0.57,0.27-1.11c0.03-0.06,0.06-0.18,0.09-0.33l0.3,0.33
		c0.42,0.42,0.75,0.66,1.02,0.75c0.09,0,0.72,0.15,0.72,0.15c0.09,0,0.09,0,2.22-0.84c1.23-0.63,1.59-0.78,2.16-1.08
		c0.9-0.39,0.9-0.39,1.05-3.84l0.18-2.43c0-0.84-0.09-0.96-1.32-1.71c0.57-0.78,0.96-1.02,1.59-1.02c0.33,0,0.33,0,1.23,0.27
		c1.02,0.27,1.26,0.45,1.26,0.96c0,0.21-0.09,0.33-0.39,0.51c-0.15,0.51-0.18,0.72-0.18,1.08c0,0.84,0.03,0.87,1.74,1.98
		c1.14,0.78,1.14,0.78,1.38,0.78c0.09,0,0.09,0,0.75-0.18c0.06-0.03,0.12-0.03,0.21-0.03c0.93,0,2.28,0.84,2.28,1.44
		c0,0.09-0.06,0.21-0.12,0.3c-0.27,0.24-0.27,0.24-2.19,0.78l-0.9,0.36l-1.26,0.45c-2.58,1.14-3.03,1.38-3.09,1.53
		c-0.54,1.08-0.54,1.08-0.54,1.26c0,0.3,1.02,2.07,1.83,3.12c0.51,0.69,3.18,3.87,3.63,4.32c0.9,0.93,0.9,0.93,4.32,2.64
		c1.14,0.6,2.13,1.35,2.82,2.07v0.06c-0.45,0.27-0.66,0.3-1.77,0.3c-1.35,0-2.46-0.15-3.33-0.48c-0.57-0.21-0.6-0.24-1.59-1.17
		c-0.99-0.96-1.23-1.17-1.32-1.32l-4.83-6.66l-0.36-0.45h-0.06l-0.09,0.33c-0.15,0.54-0.27,0.93-0.27,0.99
		c-0.18,0.48-0.36,0.96-0.54,1.47c-0.06,0.15-0.12,0.33-0.18,0.51c-0.15,0.42-0.3,0.84-0.36,0.93L139.83,38.88z M146.67,26.16
		c-1.14-0.69-1.56-1.05-2.91-2.55c-0.06,0.21-0.09,0.33-0.09,0.36c-0.03,0.15-0.09,0.72-0.21,1.59c-0.06,0.48-0.15,0.96-0.27,1.38
		c-0.06,0.18-0.09,0.36-0.09,0.51c0,0.09,0.03,0.15,0.09,0.21l3.45-1.44L146.67,26.16z"/>
	<path d="M158.95,40.14c0.15-0.06,0.27-0.15,0.33-0.18c0.33-0.15,0.66-0.33,0.99-0.51c3.96-3.87,4.17-4.11,5.25-5.88
		c1.14-1.98,1.59-2.97,1.65-3.54l-0.24-0.06l-0.18,0.18l-4.35,3.3l-0.12,0.15h-0.24c-0.24,0-0.6-0.3-1.14-0.96
		c-1.02-0.51-1.38-0.84-1.38-1.29c0-0.18,0.06-0.33,0.18-0.45c0.09-0.12,0.15-0.18,0.15-0.24c0,0,0-0.03-0.03-0.06
		c0.15-0.06,0.27-0.12,0.33-0.15l0.3-0.18c0.09-0.06,0.21-0.09,0.3-0.09c0.27,0,0.45,0.12,0.75,0.51l0.51,0.27
		c0.18-0.06,0.3-0.12,0.33-0.12l0.96-0.27c0.09-0.03,0.39-0.18,0.69-0.36l2.97-1.74c0.42-0.24,0.84-0.48,1.29-0.72
		c0.06-0.03,0.09-0.09,0.12-0.09l0.27-0.69c0.15-0.33,0.54-0.57,0.9-0.57c0.09,0,0.09,0,0.66,0.18c0.75,0.15,0.93,0.24,0.93,0.57
		c0,0.36-0.12,0.54-0.78,1.17l-0.33,0.45l-0.18,0.21l-2.58,4.59l-0.03,0.06l-0.18,0.3c-0.09,0.18-0.18,0.36-0.18,0.45
		c0,0.06,0.06,0.15,0.48,0.75c0.21,0.33,0.3,1.05,0.3,2.37c0,0.06-0.03,0.24-0.06,0.6v0.03c0,0,0.03,0.03,0.03,0.06v0.09
		c-0.03,0-0.03,0-0.06,0.03s-0.03,0.06-0.03,0.06l0.24,6.24c0.03,0.06-0.27,0.81-0.33,0.87c-0.06,0.12-0.21,0.18-0.33,0.18
		c-0.69,0-1.65-1.53-1.65-2.61c0-0.3,0-0.3,0.39-0.9c0.15-0.54,0.24-0.87,0.27-0.99l0.21-5.43l-0.12-0.54
		c-0.15,0.15-0.21,0.27-0.24,0.27l-0.69,1.23c-1.17,1.98-3.66,3.81-5.22,3.81c-0.24,0-0.6-0.12-1.11-0.33V40.14z M164.77,22.59
		c0.78-0.39,1.02-0.45,1.5-0.48c0.15,0.12,0.3,0.21,0.33,0.21c0.06,0.03,0.27,0.06,0.54,0.12c0.57,0.12,1.77,0.63,2.25,0.93
		c0.3,0.21,0.51,0.63,0.51,0.99c0,0.24-0.09,0.48-0.27,0.6c-0.18,0.12-0.18,0.12-2.19,0.45l-1.05,0.27h-0.03
		c-0.15,0-0.21-0.06-0.21-0.27c0.09-0.12,0.15-0.21,0.21-0.27c0.42-0.57,0.45-0.63,0.48-1.17l-1.92-1.02L164.77,22.59z M168.19,33.6
		c0.15-0.03,0.3-0.06,0.36-0.06c0.48-0.12,0.84-0.18,0.96-0.18c0.48,0,1.35,0.24,1.86,0.51c0.33,0.15,0.54,0.45,0.54,0.72
		c0,0.6-1.08,1.17-2.13,1.17c-0.27,0-0.36-0.03-0.66-0.12l0.03-0.24c0.33-0.36,0.42-0.54,0.42-0.72c0-0.09,0-0.09-0.3-0.45
		c-0.12-0.15-0.12-0.15-0.51-0.3c-0.3-0.12-0.3-0.12-0.54-0.24L168.19,33.6z M178.03,39.81c0.63-0.06,1.26-0.12,1.86-0.18
		c1.17-0.03,1.8-0.03,1.92-0.03h0.21c0.18,0.03,0.3,0.03,0.33,0.03c1.02-0.51,1.02-0.51,1.23-0.51c0.45,0,1.14,0.33,1.83,0.9
		c0.21,0.15,0.33,0.27,0.39,0.3c0.12,0.06,0.24,0.15,0.39,0.21c0.21,0.15,0.36,0.42,0.36,0.66c0,0.33-0.48,0.66-0.96,0.66
		c-0.42,0-0.69-0.06-1.29-0.33c-0.09-0.09-1.17-0.36-1.47-0.39c-0.06-0.03-0.39-0.03-0.87-0.06l-1.56-0.06l-0.57,0.06l-1.41,0.12
		l-1.08,0.18c-2.34,0.3-3.93,0.72-4.53,1.2L172,42.96c-0.72,0.39-0.72,0.39-0.96,0.39c-0.36,0-0.57-0.12-1.41-0.75
		c-0.51-0.39-0.75-0.78-0.75-1.2c0-0.12,0.09-0.27,0.27-0.45l0.3-0.48c0.06-0.09,0.09-0.15,0.15-0.15c0.03,0,0.06,0,0.12,0.03
		c0.24,0.51,0.39,0.66,0.84,0.87c0.18-0.06,0.39-0.12,0.45-0.15c0.24-0.06,0.42-0.12,0.45-0.12c0.48-0.12,0.99-0.24,1.5-0.33
		l0.9-0.21l0.39-0.03l0.96-0.21l0.33-0.03c0.03,0,0.21-0.03,0.36-0.06l0.15-1.08l0.18-5.64l-0.06-0.27
		c-0.21,0.09-0.33,0.18-0.36,0.18c-0.39,0.33-0.81,0.63-1.2,0.93c-0.03,0.03-0.06,0.03-0.12,0.03c-0.21,0-0.51-0.18-0.81-0.51
		c-0.42-0.42-0.66-0.66-0.72-0.69l-0.84-0.6c-0.21-0.15-0.36-0.42-0.36-0.63c0-0.18,0.06-0.27,0.3-0.63
		c0.06-0.09,0.12-0.18,0.21-0.27c0.06-0.06,0.12-0.18,0.21-0.3v0.12c0.39,0.45,1.14,0.96,1.47,0.96c0.3,0,0.93-0.18,1.2-0.36
		c0.66-0.39,0.66-0.39,1.02-0.54l-0.15-6.24l-0.12-0.48c-0.09,0.06-0.15,0.09-0.21,0.09c-0.18,0-0.42-0.09-0.63-0.27
		c-0.06-0.06-0.18-0.18-0.36-0.33c-0.06-0.03-0.15-0.12-0.3-0.24c0.15-0.12,0.24-0.21,0.27-0.27l0.3-0.45
		c0.09-0.12,0.48-0.24,0.78-0.24c0.57,0,1.83,0.33,2.25,0.57c0.93,0.57,1.05,0.66,1.05,0.96c0,0.24-0.12,0.45-0.42,0.78
		c0.15,0.69,0.24,1.05,0.33,1.17l0.45,0.81c0.12,0.21,0.24,0.33,0.39,0.48c0.69,0.48,1.41,0.99,2.13,1.5
		c0.27,0.18,0.48,0.54,0.48,0.84c0,0.24,0,0.24-0.99,0.81c-0.03,0-0.21,0.15-0.48,0.33c-0.27,0.21-0.54,0.39-0.69,0.45
		c-0.6,0.3-1.17,0.6-1.74,0.9c-0.66,0.3-0.78,0.9-0.75,4.47l-0.12,1.11c0.06,1.14,0.06,1.14,0.06,1.32c0,0.12,0,0.21-0.03,0.99
		L178.03,39.81z M178.42,26.19c0-0.06-0.09-0.18-0.24-0.33c-0.06,0.12-0.09,0.21-0.09,0.24l-0.06,0.54l-0.09,0.42
		c-0.03,0.3-0.03,0.57-0.03,0.72c0,0.03-0.03,0.63-0.06,1.83v0.15c0,0.21,0,0.33,0.06,0.51c0.45-0.18,1.11-0.48,1.53-0.72
		c0.36-0.21,0.54-0.45,0.54-0.78c0-0.15,0-0.15-0.69-1.14L178.42,26.19z"/>
</g>
<g>
	
		<linearGradient id="SVGID_1_" gradientUnits="userSpaceOnUse" x1="61.4238" y1="52.4379" x2="70.8916" y2="47.1518" gradientTransform="matrix(0.9865 -0.1635 0.1635 0.9865 -7.565 11.3836)">
		<stop  offset="6.750876e-04" style="stop-color:#FFDCFF"/>
		<stop  offset="0.1652" style="stop-color:#FFD2FF"/>
		<stop  offset="0.4407" style="stop-color:#FFB9FF"/>
		<stop  offset="0.7661" style="stop-color:#FF92FF"/>
	</linearGradient>
	<path class="st1" d="M60.26,52.29l2.72-0.41l-1.05,2.68c1.36,0.13,3.29-0.58,5.07-2c2.56-2.04,2.77-6,2.77-6s-3.92-0.66-6.47,1.37
		C61.61,49.3,60.5,50.96,60.26,52.29z"/>
</g>
<g>
	
		<linearGradient id="SVGID_2_" gradientUnits="userSpaceOnUse" x1="183.4592" y1="27.8642" x2="192.6327" y2="22.7426" gradientTransform="matrix(-0.8011 0.5986 -0.5986 -0.8011 347.1875 -79.6629)">
		<stop  offset="6.750876e-04" style="stop-color:#FFDCFF"/>
		<stop  offset="0.1652" style="stop-color:#FFD2FF"/>
		<stop  offset="0.4407" style="stop-color:#FFB9FF"/>
		<stop  offset="0.7661" style="stop-color:#FF92FF"/>
	</linearGradient>
	<path class="st2" d="M185.05,7.9l-2.16,1.57L182.6,6.7c-1.22,0.49-2.57,1.96-3.47,3.98c-1.29,2.9,0.29,6.4,0.29,6.4
		s3.67-1.18,4.95-4.06C185.22,11.08,185.43,9.16,185.05,7.9z"/>
</g>
<g>
	
		<linearGradient id="SVGID_3_" gradientUnits="userSpaceOnUse" x1="181.5056" y1="20.1616" x2="190.6791" y2="15.0399" gradientTransform="matrix(-0.981 -0.1938 0.1938 -0.981 367.6316 73.2143)">
		<stop  offset="6.750876e-04" style="stop-color:#FFDCFF"/>
		<stop  offset="0.1652" style="stop-color:#FFD2FF"/>
		<stop  offset="0.4407" style="stop-color:#FFB9FF"/>
		<stop  offset="0.7661" style="stop-color:#FF92FF"/>
	</linearGradient>
	<path class="st3" d="M194.43,19.43l-2.61-0.55l1.86-2.07c-1.18-0.58-3.18-0.59-5.28,0.09c-3.02,0.98-4.56,4.5-4.56,4.5
		s3.33,1.93,6.33,0.96C192.19,21.68,193.75,20.55,194.43,19.43z"/>
</g>
<polygon class="st4" points="55.64,16.24 10.26,16.24 7.95,12.18 57.95,12.18 "/>
<polygon class="st5" points="50.77,19.59 15.13,19.59 13.32,16.24 52.58,16.24 "/>
<rect x="10.34" y="23.14" class="st6" width="45.21" height="3.54"/>
<rect x="17.36" y="19.5" class="st7" width="4.5" height="26.65"/>
<rect x="43.9" y="19.54" class="st7" width="4.5" height="26.65"/>
<rect x="29.79" y="17.27" class="st8" width="6.32" height="8.5"/>
<polygon class="st9" points="49.95,49.24 42.34,49.24 43.24,46.1 49.06,46.1 "/>
<polygon class="st9" points="23.38,49.24 15.77,49.24 16.66,46.1 22.48,46.1 "/>
<rect x="30.59" y="17.87" class="st10" width="4.77" height="7.3"/>
</svg>
